<svg width="34.000000" height="22.000488" viewBox="0 0 34 22.0005" fill="none" xmlns="http://www.w3.org/2000/svg" xmlns:xlink="http://www.w3.org/1999/xlink">
  <path d="M9.27295 0L24.7275 0L24.7275 3.14307L9.27295 3.14307L9.27295 0ZM6.18188 3.14307L9.27283 3.14307L9.27283 6.28613L6.18188 6.28613L6.18188 3.14307ZM24.7272 3.14307L27.8181 3.14307L27.8181 6.28613L24.7272 6.28613L24.7272 3.14307ZM12.3639 6.28564L21.6366 6.28564L21.6366 15.7144L12.3639 15.7144L12.3639 6.28564ZM3.09094 6.28613L6.18188 6.28613L6.18188 9.4292L3.09094 9.4292L3.09094 6.28613ZM27.8182 6.28613L30.9091 6.28613L30.9091 9.4292L27.8182 9.4292L27.8182 6.28613ZM0 9.42871L3.09094 9.42871L3.09094 12.5718L0 12.5718L0 9.42871ZM30.9091 9.42871L34 9.42871L34 12.5718L30.9091 12.5718L30.9091 9.42871ZM3.09094 12.5718L6.18188 12.5718L6.18188 15.7148L3.09094 15.7148L3.09094 12.5718ZM27.8182 12.5718L30.9091 12.5718L30.9091 15.7148L27.8182 15.7148L27.8182 12.5718ZM6.18188 15.7144L9.27283 15.7144L9.27283 18.8574L6.18188 18.8574L6.18188 15.7144ZM24.7272 15.7144L27.8181 15.7144L27.8181 18.8574L24.7272 18.8574L24.7272 15.7144ZM9.27295 18.8574L24.7275 18.8574L24.7275 22.0005L9.27295 22.0005L9.27295 18.8574Z" 
    clip-rule="evenodd" fill="currentColor" fill-opacity="1.000000" fill-rule="evenodd"/>
</svg>
