<svg width="" height="" viewBox="0 0 61 39" fill="none" xmlns="http://www.w3.org/2000/svg" xmlns:xlink="http://www.w3.org/1999/xlink">
  <path d="M16.63 0L44.36 0L44.36 5.57L16.63 5.57L16.63 0ZM11.09 5.57L16.63 5.57L16.63 11.14L11.09 11.14L11.09 5.57ZM44.36 5.57L49.9 5.57L49.9 11.14L44.36 11.14L44.36 5.57ZM5.54 11.14L11.09 11.14L11.09 16.71L5.54 16.71L5.54 11.14ZM22.18 11.14L38.81 11.14L38.81 27.85L22.18 27.85L22.18 11.14ZM49.9 11.14L55.45 11.14L55.45 16.71L49.9 16.71L49.9 11.14ZM0 16.71L5.54 16.71L5.54 22.28L0 22.28L0 16.71ZM55.45 16.71L61 16.71L61 22.28L55.45 22.28L55.45 16.71ZM5.54 22.28L11.09 22.28L11.09 27.85L5.54 27.85L5.54 22.28ZM49.9 22.28L55.45 22.28L55.45 27.85L49.9 27.85L49.9 22.28ZM11.09 27.85L16.63 27.85L16.63 33.42L11.09 33.42L11.09 27.85ZM44.36 27.85L49.9 27.85L49.9 33.42L44.36 33.42L44.36 27.85ZM16.63 33.42L44.36 33.42L44.36 39L16.63 39L16.63 33.42Z" 
    fill="currentColor" fill-opacity="1.000000" fill-rule="evenodd"/>
</svg>
