<svg viewBox="0 0 42.1355 23.5" fill="none" xmlns="http://www.w3.org/2000/svg" xmlns:xlink="http://www.w3.org/1999/xlink">
  <path id="Vector 4" d="M2.06 16.5L6.22 9.74C9.37 4.62 14.96 1.5 20.98 1.5C26.89 1.5 32.4 4.51 35.58 9.49L40.06 16.5" stroke="#323876" stroke-opacity="1.000000" stroke-width="3.000000" stroke-linecap="square"/>
  <path id="Ellipse 20" d="M21.6 6.5C16.9 6.5 13.1 10.3 13.1 15C13.1 19.69 16.9 23.5 21.6 23.5C26.29 23.5 30.1 19.69 30.1 15C30.1 10.3 26.29 6.5 21.6 6.5ZM20.33 9.64C20.74 9.54 21.16 9.5 21.6 9.5C22.03 9.5 22.46 9.54 22.87 9.64C23.17 9.71 23.46 9.81 23.74 9.93C24.04 10.05 24.32 10.2 24.59 10.37C24.91 10.58 25.21 10.83 25.49 11.11C25.77 11.38 26.01 11.68 26.22 12.01C26.39 12.28 26.54 12.56 26.67 12.85C26.79 13.14 26.88 13.43 26.95 13.72C27.05 14.14 27.1 14.56 27.1 15C27.1 15.43 27.05 15.85 26.95 16.27C26.88 16.56 26.79 16.85 26.67 17.14C26.54 17.43 26.39 17.71 26.22 17.98C26.01 18.3 25.77 18.61 25.49 18.88C25.21 19.16 24.91 19.41 24.59 19.62C24.32 19.79 24.04 19.94 23.74 20.06C23.46 20.18 23.17 20.28 22.87 20.35C22.46 20.45 22.03 20.5 21.6 20.5C21.16 20.5 20.74 20.45 20.33 20.35C20.03 20.28 19.74 20.18 19.46 20.06C19.16 19.94 18.88 19.79 18.61 19.62C18.29 19.41 17.99 19.16 17.71 18.88C17.43 18.61 17.19 18.31 16.98 17.98C16.81 17.71 16.66 17.43 16.53 17.14C16.41 16.85 16.32 16.56 16.25 16.27C16.15 15.85 16.1 15.43 16.1 15C16.1 14.56 16.15 14.14 16.25 13.72C16.32 13.43 16.41 13.14 16.53 12.85C16.66 12.56 16.81 12.28 16.98 12.01C17.19 11.69 17.43 11.38 17.71 11.11C17.99 10.83 18.29 10.58 18.61 10.37C18.88 10.2 19.16 10.05 19.46 9.93C19.74 9.81 20.03 9.71 20.33 9.64Z" fill="#323876" fill-opacity="1.000000" fill-rule="evenodd"/>
</svg>