<svg viewBox="0 0 54 54" fill="none" xmlns="http://www.w3.org/2000/svg" xmlns:xlink="http://www.w3.org/1999/xlink">
  <g clip-path="url(#clip63_279)">
    <path id="path" d="M41.27 17.06C42.67 19.08 43.66 21.41 44.11 23.93L49.5 23.93L49.5 30.06L44.11 30.06C43.66 32.58 42.67 34.91 41.27 36.93L45.07 40.74L40.74 45.07L36.93 41.27C34.91 42.67 32.58 43.66 30.06 44.11L30.06 49.5L23.93 49.5L23.93 44.11C21.41 43.66 19.08 42.67 17.06 41.27L13.25 45.07L8.92 40.74L12.72 36.93C11.32 34.91 10.33 32.58 9.88 30.06L4.5 30.06L4.5 23.93L9.88 23.93C10.33 21.41 11.32 19.08 12.72 17.06L8.92 13.25L13.25 8.92L17.06 12.72C19.08 11.32 21.41 10.33 23.93 9.88L23.93 4.5L30.06 4.5L30.06 9.88C32.58 10.33 34.91 11.32 36.93 12.72L40.74 8.92L45.07 13.25L41.27 17.06Z" fill="#000000" fill-opacity="0" fill-rule="nonzero"/>
    <path id="path" d="M44.11 23.93L49.5 23.93L49.5 30.06L44.11 30.06C43.66 32.58 42.67 34.91 41.27 36.93L45.07 40.74L40.74 45.07L36.93 41.27C34.91 42.67 32.58 43.66 30.06 44.11L30.06 49.5L23.93 49.5L23.93 44.11C21.41 43.66 19.08 42.67 17.06 41.27L13.25 45.07L8.92 40.74L12.72 36.93C11.32 34.91 10.33 32.58 9.88 30.06L4.5 30.06L4.5 23.93L9.88 23.93C10.33 21.41 11.32 19.08 12.72 17.06L8.92 13.25L13.25 8.92L17.06 12.72C19.08 11.32 21.41 10.33 23.93 9.88L23.93 4.5L30.06 4.5L30.06 9.88C32.58 10.33 34.91 11.32 36.93 12.72L40.74 8.92L45.07 13.25L41.27 17.06C42.67 19.08 43.66 21.41 44.11 23.93Z" stroke="#323876" stroke-opacity="1.000000" stroke-width="2.000000" stroke-linejoin="round"/>
    <path id="path" d="M27 32.62C30.1 32.62 32.62 30.1 32.62 27C32.62 23.89 30.1 21.37 27 21.37C23.89 21.37 21.37 23.89 21.37 27C21.37 30.1 23.89 32.62 27 32.62Z" fill="#000000" fill-opacity="0" fill-rule="nonzero"/>
    <path id="path" d="M32.62 27C32.62 23.89 30.1 21.37 27 21.37C23.89 21.37 21.37 23.89 21.37 27C21.37 30.1 23.89 32.62 27 32.62C30.1 32.62 32.62 30.1 32.62 27Z" stroke="#323876" stroke-opacity="1.000000" stroke-width="2.000000" stroke-linejoin="round"/>
  </g>
</svg>
