<svg width="27.000000" height="26.999756" viewBox="0 0 27 26.9998" fill="none" xmlns="http://www.w3.org/2000/svg" xmlns:xlink="http://www.w3.org/1999/xlink">
  <path d="M7.71 0L19.28 0L19.28 3.85L7.71 3.85L7.71 0ZM23.14 0L27 0L27 3.85L23.14 3.85L23.14 0ZM3.85 3.85L7.71 3.85L7.71 7.71L3.85 7.71L3.85 3.85ZM19.28 3.85L27 3.85L27 7.71L19.28 7.71L19.28 3.85ZM0 7.71L3.85 7.71L3.85 11.57L0 11.57L0 7.71ZM15.42 7.71L27 7.71L27 11.57L15.42 11.57L15.42 7.71ZM0 11.57L3.85 11.57L3.85 15.42L0 15.42L0 11.57ZM0 15.42L3.85 15.42L3.85 19.28L0 19.28L0 15.42ZM3.85 19.28L7.71 19.28L7.71 23.14L3.85 23.14L3.85 19.28ZM23.14 19.28L23.14 23.14L19.28 23.14L19.28 19.28L23.14 19.28ZM7.71 23.14L19.28 23.14L19.28 26.99L11.57 26.99L7.71 26.99L7.71 23.14Z" 
    fill="currentColor" fill-opacity="1.000000" fill-rule="evenodd"/>
</svg>
