<svg width="41.436890" height="27.000000" viewBox="0 0 41.4369 27" fill="none" xmlns="http://www.w3.org/2000/svg" xmlns:xlink="http://www.w3.org/1999/xlink">
  <rect id="sound" rx="-0.500000" width="40.000000" height="25.999985" transform="translate(0.718750 0.500000)" stroke="#280C4D" stroke-opacity="0" stroke-width="1.000000"/>
  <path id="soundOn" d="M32.5579 0L35.5177 0L35.5177 3L32.5579 3L32.5579 0ZM14.7991 23.9999L14.7991 0L17.7589 0L17.7589 23.9999L14.7991 23.9999ZM35.5178 2.99976L38.4777 2.99976L38.4777 5.99951L41.4369 5.99951L41.4369 8.99951L38.4771 8.99951L38.4771 5.99976L35.5178 5.99976L35.5178 2.99976ZM11.8389 5.99951L11.8389 3L14.7987 3L14.7987 5.99951L11.8389 5.99951ZM26.6377 5.99951L29.5975 5.99951L29.5975 8.99951L26.6377 8.99951L26.6377 5.99951ZM8.87891 8.99927L8.87891 6L11.8387 6L11.8387 8.99951L8.87952 8.99951L8.87952 8.99976L11.8387 8.99976L11.8387 11.9993L8.87952 11.9993L8.87952 11.9995L11.8387 11.9995L11.8387 14.999L8.87952 14.999L8.87952 15L11.8387 15L11.8387 17.9995L8.87891 17.9995L8.87891 17.9993L0 17.9993L0 8.99927L8.87891 8.99927ZM11.8389 8.99951L11.8389 6L14.7987 6L14.7987 8.99951L11.8389 8.99951ZM11.8389 11.9993L11.8389 8.99976L14.7987 8.99976L14.7987 11.9993L11.8389 11.9993ZM20.7183 9L23.6781 9L23.6781 12L20.7183 12L20.7183 9ZM29.5977 9L32.5575 9L32.5575 12L29.5977 12L29.5977 9ZM38.4771 9L41.4369 9L41.4369 12L38.4771 12L38.4771 9ZM11.8389 14.999L11.8389 11.9995L14.7987 11.9995L14.7987 14.999L11.8389 14.999ZM23.6785 12L26.6383 12L26.6383 15L23.6785 15L23.6785 12ZM29.5977 12L32.5575 12L32.5575 17.9998L29.5977 17.9998L29.5977 12ZM38.4771 12L41.4369 12L41.4369 20.9995L38.4771 20.9995L38.4771 12ZM20.7183 14.9998L23.6781 14.9998L23.6781 17.9998L20.7183 17.9998L20.7183 14.9998ZM11.8389 17.9995L11.8389 15L14.7987 15L14.7987 17.9995L11.8389 17.9995ZM26.6377 17.9995L29.5975 17.9995L29.5975 20.9995L26.6377 20.9995L26.6377 17.9995ZM11.8389 20.9995L11.8389 18L14.7987 18L14.7987 20.9995L11.8389 20.9995ZM8.87891 18.0005L11.8387 18.0005L11.8387 21L8.87891 21L8.87891 18.0005ZM35.5178 21L38.4777 21L38.4777 24L35.5178 24L35.5178 21ZM11.8389 21.0002L14.7987 21.0002L14.7987 23.9998L11.8389 23.9998L11.8389 21.0002ZM14.7991 24L17.7589 24L17.7589 26.9995L14.7991 26.9995L14.7991 24ZM32.5579 24L35.5177 24L35.5177 27L32.5579 27L32.5579 24Z" clip-rule="evenodd" fill="#280C4D" fill-opacity="1.000000" fill-rule="evenodd"/>
</svg>
